# Blender v2.79 (sub 0) OBJ File: ''
# www.blender.org
mtllib correctedSatr.mtl
o Curve.003_Curve.012
v -0.270976 0.164806 -0.260169
v 0.270969 0.164806 -0.260169
v 0.000013 0.164806 -0.809129
v -0.876932 0.164806 -0.172115
v 0.876926 0.164806 -0.172115
v -0.438459 0.164806 0.255165
v 0.438453 0.164806 0.255165
v -0.541965 0.164806 0.858551
v 0.000013 0.164806 0.573688
v 0.541958 0.164806 0.858551
v 0.270969 -0.164806 -0.260169
v -0.270976 -0.164806 -0.260169
v 0.000013 -0.164806 -0.809129
v -0.876932 -0.164806 -0.172115
v 0.876926 -0.164806 -0.172115
v -0.438459 -0.164806 0.255165
v 0.438453 -0.164806 0.255165
v -0.541965 -0.164806 0.858551
v 0.000013 -0.164806 0.573687
v 0.541958 -0.164806 0.858551
v -0.270976 0.164806 -0.260169
v 0.000013 0.164806 -0.809129
v 0.000013 -0.164806 -0.809129
v -0.270976 -0.164806 -0.260169
v 0.270969 0.164806 -0.260169
v 0.270969 -0.164806 -0.260169
v 0.876926 0.164806 -0.172115
v 0.876926 -0.164806 -0.172115
v 0.438453 0.164806 0.255165
v 0.438453 -0.164806 0.255165
v 0.541958 0.164806 0.858551
v 0.541958 -0.164806 0.858551
v 0.000013 0.164806 0.573688
v 0.000013 -0.164806 0.573687
v -0.541965 0.164806 0.858551
v -0.541965 -0.164806 0.858551
v -0.438459 0.164806 0.255165
v -0.438459 -0.164806 0.255165
v -0.876932 0.164806 -0.172115
v -0.876932 -0.164806 -0.172115
vn 0.0000 1.0000 0.0000
vn 0.0000 -1.0000 -0.0000
vn -0.5878 0.0000 -0.8090
vn 0.0000 0.0000 -1.0000
vn 0.5878 0.0000 -0.8090
vn 0.9511 0.0000 -0.3089
vn 0.9510 -0.0000 0.3091
vn 0.5878 -0.0000 0.8090
vn -0.0000 -0.0000 1.0000
vn -0.5878 -0.0000 0.8090
vn -0.9510 -0.0000 0.3091
vn -0.9511 0.0000 -0.3089
usemtl SVGMat.015
s off
f 1//1 2//1 3//1
f 4//1 2//1 1//1
f 4//1 5//1 2//1
f 6//1 5//1 4//1
f 6//1 7//1 5//1
f 8//1 7//1 6//1
f 8//1 9//1 7//1
f 9//1 10//1 7//1
f 11//2 12//2 13//2
f 11//2 14//2 12//2
f 15//2 14//2 11//2
f 15//2 16//2 14//2
f 17//2 16//2 15//2
f 17//2 18//2 16//2
f 19//2 18//2 17//2
f 20//2 19//2 17//2
s 1
f 21//3 22//4 23//4 24//3
f 22//4 25//5 26//5 23//4
f 25//5 27//6 28//6 26//5
f 27//6 29//7 30//7 28//6
f 29//7 31//8 32//8 30//7
f 31//8 33//9 34//9 32//8
f 33//9 35//10 36//10 34//9
f 35//10 37//11 38//11 36//10
f 37//11 39//12 40//12 38//11
f 39//12 21//3 24//3 40//12
