# Blender v2.79 (sub 0) OBJ File: ''
# www.blender.org
mtllib minus10.mtl
o Text
v 0.946830 -0.143111 0.800517
v 0.912040 -0.143111 0.790722
v 0.879725 -0.143111 0.774742
v 0.850061 -0.143111 0.752856
v 0.823225 -0.143111 0.725347
v 0.799394 -0.143111 0.692495
v 0.778744 -0.143111 0.654581
v 0.761453 -0.143111 0.611888
v 0.747696 -0.143111 0.564695
v 0.737651 -0.143111 0.513285
v 0.731494 -0.143111 0.457938
v 0.729403 -0.143111 0.398936
v 0.731494 -0.143111 0.339934
v 0.737651 -0.143111 0.284587
v 0.747696 -0.143111 0.233176
v 0.761453 -0.143111 0.185984
v 0.778744 -0.143111 0.143290
v 0.799394 -0.143111 0.105377
v 0.823225 -0.143111 0.072525
v 0.850061 -0.143111 0.045016
v 0.879725 -0.143111 0.023130
v 0.912040 -0.143111 0.007149
v 0.946830 -0.143111 -0.002645
v 0.983917 -0.143111 -0.005973
v 1.021004 -0.143111 -0.002645
v 1.055793 -0.143111 0.007149
v 1.088108 -0.143111 0.023130
v 1.117772 -0.143111 0.045016
v 1.144608 -0.143111 0.072525
v 1.168439 -0.143111 0.105377
v 1.189089 -0.143111 0.143290
v 1.206381 -0.143111 0.185984
v 1.220138 -0.143111 0.233176
v 1.230183 -0.143111 0.284587
v 1.236339 -0.143111 0.339934
v 1.238431 -0.143111 0.398936
v 1.236339 -0.143111 0.457938
v 1.230183 -0.143111 0.513285
v 1.220138 -0.143111 0.564695
v 1.206381 -0.143111 0.611888
v 1.189089 -0.143111 0.654581
v 1.168439 -0.143111 0.692495
v 1.144608 -0.143111 0.725347
v 1.117772 -0.143111 0.752856
v 1.088108 -0.143111 0.774742
v 1.055793 -0.143111 0.790723
v 1.021004 -0.143111 0.800517
v 0.983917 -0.143111 0.803845
v 0.962670 -0.143111 0.103932
v 0.942933 -0.143111 0.110787
v 0.924771 -0.143111 0.122043
v 0.908248 -0.143111 0.137566
v 0.893428 -0.143111 0.157219
v 0.880376 -0.143111 0.180864
v 0.869155 -0.143111 0.208365
v 0.859831 -0.143111 0.239586
v 0.852466 -0.143111 0.274390
v 0.847126 -0.143111 0.312641
v 0.843875 -0.143111 0.354202
v 0.842777 -0.143111 0.398936
v 0.843875 -0.143111 0.443670
v 0.847127 -0.143111 0.485231
v 0.852466 -0.143111 0.523481
v 0.859831 -0.143111 0.558286
v 0.869155 -0.143111 0.589507
v 0.880376 -0.143111 0.617008
v 0.893428 -0.143111 0.640653
v 0.908248 -0.143111 0.660306
v 0.924771 -0.143111 0.675828
v 0.942933 -0.143111 0.687085
v 0.962670 -0.143111 0.693939
v 0.983917 -0.143111 0.696255
v 1.005163 -0.143111 0.693939
v 1.024900 -0.143111 0.687085
v 1.043062 -0.143111 0.675828
v 1.059585 -0.143111 0.660306
v 1.074405 -0.143111 0.640653
v 1.087458 -0.143111 0.617008
v 1.098678 -0.143111 0.589507
v 1.108003 -0.143111 0.558286
v 1.115367 -0.143111 0.523481
v 1.120708 -0.143111 0.485231
v 1.123959 -0.143111 0.443670
v 1.125057 -0.143111 0.398936
v 1.123959 -0.143111 0.354202
v 1.120708 -0.143111 0.312641
v 1.115368 -0.143111 0.274390
v 1.108003 -0.143111 0.239586
v 1.098679 -0.143111 0.208365
v 1.087458 -0.143111 0.180864
v 1.074405 -0.143111 0.157219
v 1.059586 -0.143111 0.137566
v 1.043062 -0.143111 0.122043
v 1.024900 -0.143111 0.110787
v 1.005164 -0.143111 0.103932
v 0.983917 -0.143111 0.101617
v 0.349946 -0.143111 0.793433
v 0.349946 -0.143111 0.004439
v 0.463320 -0.143111 0.004439
v 0.463320 -0.143111 0.793433
v -0.211142 -0.143111 0.592135
v -0.211142 -0.143111 0.484545
v 0.069980 -0.143111 0.484545
v 0.069980 -0.143111 0.592135
v 0.946830 -0.198641 0.800517
v 0.912040 -0.198641 0.790722
v 0.879725 -0.198641 0.774742
v 0.850061 -0.198641 0.752856
v 0.823225 -0.198641 0.725347
v 0.799394 -0.198641 0.692495
v 0.778744 -0.198641 0.654581
v 0.761453 -0.198641 0.611888
v 0.747696 -0.198641 0.564695
v 0.737651 -0.198641 0.513285
v 0.731494 -0.198641 0.457938
v 0.729403 -0.198641 0.398936
v 0.731494 -0.198641 0.339934
v 0.737651 -0.198641 0.284587
v 0.747696 -0.198641 0.233176
v 0.761453 -0.198641 0.185984
v 0.778744 -0.198641 0.143290
v 0.799394 -0.198641 0.105377
v 0.823225 -0.198641 0.072525
v 0.850061 -0.198641 0.045016
v 0.879725 -0.198641 0.023130
v 0.912040 -0.198641 0.007149
v 0.946830 -0.198641 -0.002645
v 0.983917 -0.198641 -0.005973
v 1.021004 -0.198641 -0.002645
v 1.055793 -0.198641 0.007149
v 1.088108 -0.198641 0.023130
v 1.117772 -0.198641 0.045016
v 1.144608 -0.198641 0.072525
v 1.168439 -0.198641 0.105377
v 1.189089 -0.198641 0.143290
v 1.206381 -0.198641 0.185984
v 1.220138 -0.198641 0.233176
v 1.230183 -0.198641 0.284587
v 1.236339 -0.198641 0.339934
v 1.238431 -0.198641 0.398936
v 1.236339 -0.198641 0.457938
v 1.230183 -0.198641 0.513285
v 1.220138 -0.198641 0.564695
v 1.206381 -0.198641 0.611888
v 1.189089 -0.198641 0.654581
v 1.168439 -0.198641 0.692495
v 1.144608 -0.198641 0.725347
v 1.117772 -0.198641 0.752856
v 1.088108 -0.198641 0.774742
v 1.055793 -0.198641 0.790723
v 1.021004 -0.198641 0.800517
v 0.983917 -0.198641 0.803845
v 0.962670 -0.198641 0.103932
v 0.942933 -0.198641 0.110787
v 0.924771 -0.198641 0.122043
v 0.908248 -0.198641 0.137566
v 0.893428 -0.198641 0.157219
v 0.880376 -0.198641 0.180864
v 0.869155 -0.198641 0.208365
v 0.859831 -0.198641 0.239586
v 0.852466 -0.198641 0.274390
v 0.847126 -0.198641 0.312641
v 0.843875 -0.198641 0.354202
v 0.842777 -0.198641 0.398936
v 0.843875 -0.198641 0.443670
v 0.847127 -0.198641 0.485231
v 0.852466 -0.198641 0.523481
v 0.859831 -0.198641 0.558286
v 0.869155 -0.198641 0.589507
v 0.880376 -0.198641 0.617008
v 0.893428 -0.198641 0.640653
v 0.908248 -0.198641 0.660306
v 0.924771 -0.198641 0.675828
v 0.942933 -0.198641 0.687085
v 0.962670 -0.198641 0.693939
v 0.983917 -0.198641 0.696255
v 1.005163 -0.198641 0.693939
v 1.024900 -0.198641 0.687085
v 1.043062 -0.198641 0.675828
v 1.059585 -0.198641 0.660306
v 1.074405 -0.198641 0.640653
v 1.087458 -0.198641 0.617008
v 1.098678 -0.198641 0.589507
v 1.108003 -0.198641 0.558286
v 1.115367 -0.198641 0.523481
v 1.120708 -0.198641 0.485231
v 1.123959 -0.198641 0.443670
v 1.125057 -0.198641 0.398936
v 1.123959 -0.198641 0.354202
v 1.120708 -0.198641 0.312641
v 1.115368 -0.198641 0.274390
v 1.108003 -0.198641 0.239586
v 1.098679 -0.198641 0.208365
v 1.087458 -0.198641 0.180864
v 1.074405 -0.198641 0.157219
v 1.059586 -0.198641 0.137566
v 1.043062 -0.198641 0.122043
v 1.024900 -0.198641 0.110787
v 1.005164 -0.198641 0.103932
v 0.983917 -0.198641 0.101617
v 0.349946 -0.198641 0.793433
v 0.349946 -0.198641 0.004439
v 0.463320 -0.198641 0.004439
v 0.463320 -0.198641 0.793433
v -0.211142 -0.198641 0.592135
v -0.211142 -0.198641 0.484545
v 0.069980 -0.198641 0.484545
v 0.069980 -0.198641 0.592135
v -0.211142 -0.198641 0.592135
v -0.211142 -0.143111 0.592135
v -0.211142 -0.198641 0.484545
v -0.211142 -0.143111 0.484545
v 0.069980 -0.198641 0.484545
v 0.069980 -0.143111 0.484545
v 0.069980 -0.198641 0.592135
v 0.069980 -0.143111 0.592135
v 0.349946 -0.198641 0.793433
v 0.349946 -0.143111 0.793433
v 0.349946 -0.198641 0.004439
v 0.349946 -0.143111 0.004439
v 0.463320 -0.198641 0.004439
v 0.463320 -0.143111 0.004439
v 0.463320 -0.198641 0.793433
v 0.463320 -0.143111 0.793433
v 0.946830 -0.198641 0.800517
v 0.946830 -0.143111 0.800517
v 0.912040 -0.198641 0.790722
v 0.912040 -0.143111 0.790722
v 0.879725 -0.198641 0.774742
v 0.879725 -0.143111 0.774742
v 0.850061 -0.198641 0.752856
v 0.850061 -0.143111 0.752856
v 0.823225 -0.198641 0.725347
v 0.823225 -0.143111 0.725347
v 0.799394 -0.198641 0.692495
v 0.799394 -0.143111 0.692495
v 0.778744 -0.198641 0.654581
v 0.778744 -0.143111 0.654581
v 0.761453 -0.198641 0.611888
v 0.761453 -0.143111 0.611888
v 0.747696 -0.198641 0.564695
v 0.747696 -0.143111 0.564695
v 0.737651 -0.198641 0.513285
v 0.737651 -0.143111 0.513285
v 0.731494 -0.198641 0.457938
v 0.731494 -0.143111 0.457938
v 0.729403 -0.198641 0.398936
v 0.729403 -0.143111 0.398936
v 0.731494 -0.198641 0.339934
v 0.731494 -0.143111 0.339934
v 0.737651 -0.198641 0.284587
v 0.737651 -0.143111 0.284587
v 0.747696 -0.198641 0.233176
v 0.747696 -0.143111 0.233176
v 0.761453 -0.198641 0.185984
v 0.761453 -0.143111 0.185984
v 0.778744 -0.198641 0.143290
v 0.778744 -0.143111 0.143290
v 0.799394 -0.198641 0.105377
v 0.799394 -0.143111 0.105377
v 0.823225 -0.198641 0.072525
v 0.823225 -0.143111 0.072525
v 0.850061 -0.198641 0.045016
v 0.850061 -0.143111 0.045016
v 0.879725 -0.198641 0.023130
v 0.879725 -0.143111 0.023130
v 0.912040 -0.198641 0.007149
v 0.912040 -0.143111 0.007149
v 0.946830 -0.198641 -0.002645
v 0.946830 -0.143111 -0.002645
v 0.983917 -0.198641 -0.005973
v 0.983917 -0.143111 -0.005973
v 1.021004 -0.198641 -0.002645
v 1.021004 -0.143111 -0.002645
v 1.055793 -0.198641 0.007149
v 1.055793 -0.143111 0.007149
v 1.088108 -0.198641 0.023130
v 1.088108 -0.143111 0.023130
v 1.117772 -0.198641 0.045016
v 1.117772 -0.143111 0.045016
v 1.144608 -0.198641 0.072525
v 1.144608 -0.143111 0.072525
v 1.168439 -0.198641 0.105377
v 1.168439 -0.143111 0.105377
v 1.189089 -0.198641 0.143290
v 1.189089 -0.143111 0.143290
v 1.206381 -0.198641 0.185984
v 1.206381 -0.143111 0.185984
v 1.220138 -0.198641 0.233176
v 1.220138 -0.143111 0.233176
v 1.230183 -0.198641 0.284587
v 1.230183 -0.143111 0.284587
v 1.236339 -0.198641 0.339934
v 1.236339 -0.143111 0.339934
v 1.238431 -0.198641 0.398936
v 1.238431 -0.143111 0.398936
v 1.236339 -0.198641 0.457938
v 1.236339 -0.143111 0.457938
v 1.230183 -0.198641 0.513285
v 1.230183 -0.143111 0.513285
v 1.220138 -0.198641 0.564695
v 1.220138 -0.143111 0.564695
v 1.206381 -0.198641 0.611888
v 1.206381 -0.143111 0.611888
v 1.189089 -0.198641 0.654581
v 1.189089 -0.143111 0.654581
v 1.168439 -0.198641 0.692495
v 1.168439 -0.143111 0.692495
v 1.144608 -0.198641 0.725347
v 1.144608 -0.143111 0.725347
v 1.117772 -0.198641 0.752856
v 1.117772 -0.143111 0.752856
v 1.088108 -0.198641 0.774742
v 1.088108 -0.143111 0.774742
v 1.055793 -0.198641 0.790723
v 1.055793 -0.143111 0.790723
v 1.021004 -0.198641 0.800517
v 1.021004 -0.143111 0.800517
v 0.983917 -0.198641 0.803845
v 0.983917 -0.143111 0.803845
v 0.962670 -0.198641 0.103932
v 0.962670 -0.143111 0.103932
v 0.942933 -0.198641 0.110787
v 0.942933 -0.143111 0.110787
v 0.924771 -0.198641 0.122043
v 0.924771 -0.143111 0.122043
v 0.908248 -0.198641 0.137566
v 0.908248 -0.143111 0.137566
v 0.893428 -0.198641 0.157219
v 0.893428 -0.143111 0.157219
v 0.880376 -0.198641 0.180864
v 0.880376 -0.143111 0.180864
v 0.869155 -0.198641 0.208365
v 0.869155 -0.143111 0.208365
v 0.859831 -0.198641 0.239586
v 0.859831 -0.143111 0.239586
v 0.852466 -0.198641 0.274390
v 0.852466 -0.143111 0.274390
v 0.847126 -0.198641 0.312641
v 0.847126 -0.143111 0.312641
v 0.843875 -0.198641 0.354202
v 0.843875 -0.143111 0.354202
v 0.842777 -0.198641 0.398936
v 0.842777 -0.143111 0.398936
v 0.843875 -0.198641 0.443670
v 0.843875 -0.143111 0.443670
v 0.847127 -0.198641 0.485231
v 0.847127 -0.143111 0.485231
v 0.852466 -0.198641 0.523481
v 0.852466 -0.143111 0.523481
v 0.859831 -0.198641 0.558286
v 0.859831 -0.143111 0.558286
v 0.869155 -0.198641 0.589507
v 0.869155 -0.143111 0.589507
v 0.880376 -0.198641 0.617008
v 0.880376 -0.143111 0.617008
v 0.893428 -0.198641 0.640653
v 0.893428 -0.143111 0.640653
v 0.908248 -0.198641 0.660306
v 0.908248 -0.143111 0.660306
v 0.924771 -0.198641 0.675828
v 0.924771 -0.143111 0.675828
v 0.942933 -0.198641 0.687085
v 0.942933 -0.143111 0.687085
v 0.962670 -0.198641 0.693939
v 0.962670 -0.143111 0.693939
v 0.983917 -0.198641 0.696255
v 0.983917 -0.143111 0.696255
v 1.005163 -0.198641 0.693939
v 1.005163 -0.143111 0.693939
v 1.024900 -0.198641 0.687085
v 1.024900 -0.143111 0.687085
v 1.043062 -0.198641 0.675828
v 1.043062 -0.143111 0.675828
v 1.059585 -0.198641 0.660306
v 1.059585 -0.143111 0.660306
v 1.074405 -0.198641 0.640653
v 1.074405 -0.143111 0.640653
v 1.087458 -0.198641 0.617008
v 1.087458 -0.143111 0.617008
v 1.098678 -0.198641 0.589507
v 1.098678 -0.143111 0.589507
v 1.108003 -0.198641 0.558286
v 1.108003 -0.143111 0.558286
v 1.115367 -0.198641 0.523481
v 1.115367 -0.143111 0.523481
v 1.120708 -0.198641 0.485231
v 1.120708 -0.143111 0.485231
v 1.123959 -0.198641 0.443670
v 1.123959 -0.143111 0.443670
v 1.125057 -0.198641 0.398936
v 1.125057 -0.143111 0.398936
v 1.123959 -0.198641 0.354202
v 1.123959 -0.143111 0.354202
v 1.120708 -0.198641 0.312641
v 1.120708 -0.143111 0.312641
v 1.115368 -0.198641 0.274390
v 1.115368 -0.143111 0.274390
v 1.108003 -0.198641 0.239586
v 1.108003 -0.143111 0.239586
v 1.098679 -0.198641 0.208365
v 1.098679 -0.143111 0.208365
v 1.087458 -0.198641 0.180864
v 1.087458 -0.143111 0.180864
v 1.074405 -0.198641 0.157219
v 1.074405 -0.143111 0.157219
v 1.059586 -0.198641 0.137566
v 1.059586 -0.143111 0.137566
v 1.043062 -0.198641 0.122043
v 1.043062 -0.143111 0.122043
v 1.024900 -0.198641 0.110787
v 1.024900 -0.143111 0.110787
v 1.005164 -0.198641 0.103932
v 1.005164 -0.143111 0.103932
v 0.983917 -0.198641 0.101617
v 0.983917 -0.143111 0.101617
vn 0.0000 1.0000 0.0000
vn 0.0000 -1.0000 -0.0000
vn -0.7071 0.0000 0.7071
vn -0.7071 0.0000 -0.7071
vn 0.7071 0.0000 -0.7071
vn 0.7071 0.0000 0.7071
vn -0.1809 0.0000 0.9835
vn -0.3587 0.0000 0.9334
vn -0.5205 0.0000 0.8538
vn -0.6569 0.0000 0.7540
vn -0.7646 0.0000 0.6444
vn -0.8455 0.0000 0.5338
vn -0.9040 0.0000 0.4275
vn -0.9446 0.0000 0.3280
vn -0.9717 0.0000 0.2360
vn -0.9885 0.0000 0.1513
vn -0.9973 0.0000 0.0730
vn -1.0000 0.0000 0.0000
vn -0.9973 0.0000 -0.0730
vn -0.9885 0.0000 -0.1513
vn -0.9717 0.0000 -0.2360
vn -0.9446 0.0000 -0.3280
vn -0.9040 0.0000 -0.4275
vn -0.8455 0.0000 -0.5338
vn -0.7646 0.0000 -0.6444
vn -0.6569 0.0000 -0.7540
vn -0.5205 0.0000 -0.8538
vn -0.3587 0.0000 -0.9334
vn -0.1809 0.0000 -0.9835
vn 0.0000 0.0000 -1.0000
vn 0.1809 0.0000 -0.9835
vn 0.3587 0.0000 -0.9334
vn 0.5205 0.0000 -0.8538
vn 0.6569 0.0000 -0.7540
vn 0.7646 0.0000 -0.6444
vn 0.8455 0.0000 -0.5338
vn 0.9040 0.0000 -0.4275
vn 0.9446 0.0000 -0.3280
vn 0.9717 0.0000 -0.2360
vn 0.9885 0.0000 -0.1513
vn 0.9973 0.0000 -0.0730
vn 1.0000 0.0000 0.0000
vn 0.9973 0.0000 0.0730
vn 0.9885 0.0000 0.1513
vn 0.9717 0.0000 0.2360
vn 0.9446 0.0000 0.3280
vn 0.9040 0.0000 0.4275
vn 0.8455 0.0000 0.5338
vn 0.7646 0.0000 0.6444
vn 0.6569 0.0000 0.7540
vn 0.5205 0.0000 0.8538
vn 0.3587 0.0000 0.9334
vn 0.1809 0.0000 0.9835
vn 0.0000 0.0000 1.0000
vn 0.2196 0.0000 0.9756
vn 0.4300 0.0000 0.9028
vn 0.6088 0.0000 0.7933
vn 0.7443 0.0000 0.6679
vn 0.8390 0.0000 0.5440
vn 0.9022 0.0000 0.4313
vn 0.9431 0.0000 0.3323
vn 0.9691 0.0000 0.2468
vn 0.9850 0.0000 0.1727
vn 0.9941 0.0000 0.1082
vn 0.9987 0.0000 0.0513
vn 0.9987 0.0000 -0.0513
vn 0.9941 0.0000 -0.1082
vn 0.9850 0.0000 -0.1727
vn 0.9691 0.0000 -0.2468
vn 0.9431 0.0000 -0.3323
vn 0.9022 0.0000 -0.4313
vn 0.8390 0.0000 -0.5440
vn 0.7443 0.0000 -0.6679
vn 0.6088 0.0000 -0.7933
vn 0.4300 0.0000 -0.9028
vn 0.2196 0.0000 -0.9756
vn -0.2196 0.0000 -0.9756
vn -0.4300 0.0000 -0.9028
vn -0.6088 0.0000 -0.7933
vn -0.7443 0.0000 -0.6679
vn -0.8390 0.0000 -0.5440
vn -0.9022 0.0000 -0.4313
vn -0.9431 0.0000 -0.3323
vn -0.9691 0.0000 -0.2468
vn -0.9850 0.0000 -0.1727
vn -0.9941 0.0000 -0.1082
vn -0.9987 0.0000 -0.0513
vn -0.9987 0.0000 0.0513
vn -0.9941 0.0000 0.1082
vn -0.9850 0.0000 0.1727
vn -0.9691 0.0000 0.2468
vn -0.9431 0.0000 0.3323
vn -0.9022 0.0000 0.4313
vn -0.8390 0.0000 0.5440
vn -0.7443 0.0000 0.6679
vn -0.6088 0.0000 0.7933
vn -0.4300 0.0000 0.9028
vn -0.2196 0.0000 0.9756
usemtl None
s off
f 23//1 25//1 24//1
f 23//1 26//1 25//1
f 22//1 26//1 23//1
f 22//1 27//1 26//1
f 21//1 27//1 22//1
f 21//1 28//1 27//1
f 20//1 28//1 21//1
f 19//1 28//1 20//1
f 19//1 29//1 28//1
f 18//1 29//1 19//1
f 18//1 96//1 29//1
f 96//1 30//1 29//1
f 18//1 49//1 96//1
f 95//1 30//1 96//1
f 18//1 50//1 49//1
f 94//1 30//1 95//1
f 17//1 50//1 18//1
f 94//1 31//1 30//1
f 17//1 51//1 50//1
f 93//1 31//1 94//1
f 17//1 52//1 51//1
f 92//1 31//1 93//1
f 17//1 53//1 52//1
f 91//1 31//1 92//1
f 16//1 53//1 17//1
f 91//1 32//1 31//1
f 16//1 54//1 53//1
f 90//1 32//1 91//1
f 16//1 55//1 54//1
f 89//1 32//1 90//1
f 15//1 55//1 16//1
f 89//1 33//1 32//1
f 15//1 56//1 55//1
f 88//1 33//1 89//1
f 14//1 56//1 15//1
f 88//1 34//1 33//1
f 14//1 57//1 56//1
f 87//1 34//1 88//1
f 14//1 58//1 57//1
f 86//1 34//1 87//1
f 13//1 58//1 14//1
f 86//1 35//1 34//1
f 13//1 59//1 58//1
f 85//1 35//1 86//1
f 12//1 59//1 13//1
f 85//1 36//1 35//1
f 12//1 60//1 59//1
f 84//1 36//1 85//1
f 11//1 60//1 12//1
f 11//1 61//1 60//1
f 83//1 36//1 84//1
f 83//1 37//1 36//1
f 11//1 62//1 61//1
f 82//1 37//1 83//1
f 10//1 62//1 11//1
f 82//1 38//1 37//1
f 10//1 63//1 62//1
f 81//1 38//1 82//1
f 9//1 63//1 10//1
f 81//1 39//1 38//1
f 80//1 39//1 81//1
f 9//1 64//1 63//1
f 79//1 39//1 80//1
f 9//1 65//1 64//1
f 8//1 65//1 9//1
f 79//1 40//1 39//1
f 78//1 40//1 79//1
f 8//1 66//1 65//1
f 7//1 66//1 8//1
f 78//1 41//1 40//1
f 77//1 41//1 78//1
f 7//1 67//1 66//1
f 76//1 41//1 77//1
f 7//1 68//1 67//1
f 6//1 68//1 7//1
f 76//1 42//1 41//1
f 75//1 42//1 76//1
f 6//1 69//1 68//1
f 74//1 42//1 75//1
f 6//1 70//1 69//1
f 73//1 42//1 74//1
f 6//1 71//1 70//1
f 5//1 71//1 6//1
f 73//1 43//1 42//1
f 72//1 43//1 73//1
f 5//1 72//1 71//1
f 5//1 43//1 72//1
f 4//1 43//1 5//1
f 4//1 44//1 43//1
f 3//1 44//1 4//1
f 3//1 45//1 44//1
f 2//1 45//1 3//1
f 2//1 46//1 45//1
f 1//1 46//1 2//1
f 1//1 47//1 46//1
f 48//1 47//1 1//1
f 97//1 99//1 98//1
f 97//1 100//1 99//1
f 101//1 103//1 102//1
f 101//1 104//1 103//1
f 129//2 127//2 128//2
f 130//2 127//2 129//2
f 130//2 126//2 127//2
f 131//2 126//2 130//2
f 131//2 125//2 126//2
f 132//2 125//2 131//2
f 132//2 124//2 125//2
f 132//2 123//2 124//2
f 133//2 123//2 132//2
f 133//2 122//2 123//2
f 200//2 122//2 133//2
f 134//2 200//2 133//2
f 153//2 122//2 200//2
f 134//2 199//2 200//2
f 154//2 122//2 153//2
f 134//2 198//2 199//2
f 154//2 121//2 122//2
f 135//2 198//2 134//2
f 155//2 121//2 154//2
f 135//2 197//2 198//2
f 156//2 121//2 155//2
f 135//2 196//2 197//2
f 157//2 121//2 156//2
f 135//2 195//2 196//2
f 157//2 120//2 121//2
f 136//2 195//2 135//2
f 158//2 120//2 157//2
f 136//2 194//2 195//2
f 159//2 120//2 158//2
f 136//2 193//2 194//2
f 159//2 119//2 120//2
f 137//2 193//2 136//2
f 160//2 119//2 159//2
f 137//2 192//2 193//2
f 160//2 118//2 119//2
f 138//2 192//2 137//2
f 161//2 118//2 160//2
f 138//2 191//2 192//2
f 162//2 118//2 161//2
f 138//2 190//2 191//2
f 162//2 117//2 118//2
f 139//2 190//2 138//2
f 163//2 117//2 162//2
f 139//2 189//2 190//2
f 163//2 116//2 117//2
f 140//2 189//2 139//2
f 164//2 116//2 163//2
f 140//2 188//2 189//2
f 164//2 115//2 116//2
f 165//2 115//2 164//2
f 140//2 187//2 188//2
f 141//2 187//2 140//2
f 166//2 115//2 165//2
f 141//2 186//2 187//2
f 166//2 114//2 115//2
f 142//2 186//2 141//2
f 167//2 114//2 166//2
f 142//2 185//2 186//2
f 167//2 113//2 114//2
f 143//2 185//2 142//2
f 143//2 184//2 185//2
f 168//2 113//2 167//2
f 143//2 183//2 184//2
f 169//2 113//2 168//2
f 169//2 112//2 113//2
f 144//2 183//2 143//2
f 144//2 182//2 183//2
f 170//2 112//2 169//2
f 170//2 111//2 112//2
f 145//2 182//2 144//2
f 145//2 181//2 182//2
f 171//2 111//2 170//2
f 145//2 180//2 181//2
f 172//2 111//2 171//2
f 172//2 110//2 111//2
f 146//2 180//2 145//2
f 146//2 179//2 180//2
f 173//2 110//2 172//2
f 146//2 178//2 179//2
f 174//2 110//2 173//2
f 146//2 177//2 178//2
f 175//2 110//2 174//2
f 175//2 109//2 110//2
f 147//2 177//2 146//2
f 147//2 176//2 177//2
f 176//2 109//2 175//2
f 147//2 109//2 176//2
f 147//2 108//2 109//2
f 148//2 108//2 147//2
f 148//2 107//2 108//2
f 149//2 107//2 148//2
f 149//2 106//2 107//2
f 150//2 106//2 149//2
f 150//2 105//2 106//2
f 151//2 105//2 150//2
f 151//2 152//2 105//2
f 203//2 201//2 202//2
f 204//2 201//2 203//2
f 207//2 205//2 206//2
f 208//2 205//2 207//2
s 1
f 210//3 212//4 211//4 209//3
f 212//4 214//5 213//5 211//4
f 214//5 216//6 215//6 213//5
f 216//6 210//3 209//3 215//6
f 218//3 220//4 219//4 217//3
f 220//4 222//5 221//5 219//4
f 222//5 224//6 223//6 221//5
f 224//6 218//3 217//3 223//6
f 226//7 228//8 227//8 225//7
f 228//8 230//9 229//9 227//8
f 230//9 232//10 231//10 229//9
f 232//10 234//11 233//11 231//10
f 234//11 236//12 235//12 233//11
f 236//12 238//13 237//13 235//12
f 238//13 240//14 239//14 237//13
f 240//14 242//15 241//15 239//14
f 242//15 244//16 243//16 241//15
f 244//16 246//17 245//17 243//16
f 246//17 248//18 247//18 245//17
f 248//18 250//19 249//19 247//18
f 250//19 252//20 251//20 249//19
f 252//20 254//21 253//21 251//20
f 254//21 256//22 255//22 253//21
f 256//22 258//23 257//23 255//22
f 258//23 260//24 259//24 257//23
f 260//24 262//25 261//25 259//24
f 262//25 264//26 263//26 261//25
f 264//26 266//27 265//27 263//26
f 266//27 268//28 267//28 265//27
f 268//28 270//29 269//29 267//28
f 270//29 272//30 271//30 269//29
f 272//30 274//31 273//31 271//30
f 274//31 276//32 275//32 273//31
f 276//32 278//33 277//33 275//32
f 278//33 280//34 279//34 277//33
f 280//34 282//35 281//35 279//34
f 282//35 284//36 283//36 281//35
f 284//36 286//37 285//37 283//36
f 286//37 288//38 287//38 285//37
f 288//38 290//39 289//39 287//38
f 290//39 292//40 291//40 289//39
f 292//40 294//41 293//41 291//40
f 294//41 296//42 295//42 293//41
f 296//42 298//43 297//43 295//42
f 298//43 300//44 299//44 297//43
f 300//44 302//45 301//45 299//44
f 302//45 304//46 303//46 301//45
f 304//46 306//47 305//47 303//46
f 306//47 308//48 307//48 305//47
f 308//48 310//49 309//49 307//48
f 310//49 312//50 311//50 309//49
f 312//50 314//51 313//51 311//50
f 314//51 316//52 315//52 313//51
f 316//52 318//53 317//53 315//52
f 318//53 320//54 319//54 317//53
f 320//54 226//7 225//7 319//54
f 322//55 324//56 323//56 321//55
f 324//56 326//57 325//57 323//56
f 326//57 328//58 327//58 325//57
f 328//58 330//59 329//59 327//58
f 330//59 332//60 331//60 329//59
f 332//60 334//61 333//61 331//60
f 334//61 336//62 335//62 333//61
f 336//62 338//63 337//63 335//62
f 338//63 340//64 339//64 337//63
f 340//64 342//65 341//65 339//64
f 342//65 344//42 343//42 341//65
f 344//42 346//66 345//66 343//42
f 346//66 348//67 347//67 345//66
f 348//67 350//68 349//68 347//67
f 350//68 352//69 351//69 349//68
f 352//69 354//70 353//70 351//69
f 354//70 356//71 355//71 353//70
f 356//71 358//72 357//72 355//71
f 358//72 360//73 359//73 357//72
f 360//73 362//74 361//74 359//73
f 362//74 364//75 363//75 361//74
f 364//75 366//76 365//76 363//75
f 366//76 368//30 367//30 365//76
f 368//30 370//77 369//77 367//30
f 370//77 372//78 371//78 369//77
f 372//78 374//79 373//79 371//78
f 374//79 376//80 375//80 373//79
f 376//80 378//81 377//81 375//80
f 378//81 380//82 379//82 377//81
f 380//82 382//83 381//83 379//82
f 382//83 384//84 383//84 381//83
f 384//84 386//85 385//85 383//84
f 386//85 388//86 387//86 385//85
f 388//86 390//87 389//87 387//86
f 390//87 392//18 391//18 389//87
f 392//18 394//88 393//88 391//18
f 394//88 396//89 395//89 393//88
f 396//89 398//90 397//90 395//89
f 398//90 400//91 399//91 397//90
f 400//91 402//92 401//92 399//91
f 402//92 404//93 403//93 401//92
f 404//93 406//94 405//94 403//93
f 406//94 408//95 407//95 405//94
f 408//95 410//96 409//96 407//95
f 410//96 412//97 411//97 409//96
f 412//97 414//98 413//98 411//97
f 414//98 416//54 415//54 413//98
f 416//54 322//55 321//55 415//54
