# Blender v2.79 (sub 0) OBJ File: ''
# www.blender.org
mtllib MinusScore.mtl
o Text
v 0.510042 0.027765 0.411655
v 0.510041 0.027765 0.485829
v 0.513369 0.027765 0.448742
v 0.500247 0.027765 0.520618
v 0.500248 0.027765 0.376865
v 0.484266 0.027765 0.552933
v 0.484267 0.027765 0.344550
v 0.462379 0.027765 0.582597
v 0.462381 0.027765 0.314886
v 0.434872 0.027765 0.288049
v 0.434870 0.027765 0.609432
v 0.402021 0.027765 0.264218
v 0.405779 0.027765 0.448741
v 0.402018 0.027765 0.633263
v 0.403464 0.027765 0.427494
v 0.403464 0.027765 0.469988
v 0.396610 0.027765 0.407757
v 0.396609 0.027765 0.489724
v 0.364108 0.027765 0.243568
v 0.364105 0.027765 0.653913
v 0.385354 0.027765 0.389595
v 0.385353 0.027765 0.507886
v 0.369831 0.027765 0.373072
v 0.369830 0.027765 0.524410
v 0.350178 0.027765 0.358252
v 0.350177 0.027765 0.539229
v 0.321414 0.027765 0.226277
v 0.321411 0.027765 0.671204
v 0.326533 0.027765 0.345200
v 0.326531 0.027765 0.552282
v 0.299032 0.027765 0.333978
v 0.299030 0.027765 0.563502
v 0.274222 0.027765 0.212519
v 0.274219 0.027765 0.684961
v 0.267811 0.027765 0.324654
v 0.267809 0.027765 0.572826
v 0.222811 0.027765 0.202474
v 0.222807 0.027765 0.695006
v 0.233007 0.027765 0.317289
v 0.233005 0.027765 0.580191
v 0.194756 0.027765 0.311949
v 0.194754 0.027765 0.585531
v 0.167464 0.027765 0.196316
v 0.167460 0.027765 0.701161
v 0.153195 0.027765 0.308697
v 0.153193 0.027765 0.588781
v 0.108462 0.027765 0.194225
v 0.108458 0.027765 0.703253
v 0.108461 0.027765 0.307599
v 0.108459 0.027765 0.589879
v 0.049460 0.027765 0.196316
v 0.063727 0.027765 0.308697
v 0.063725 0.027765 0.588781
v 0.049456 0.027765 0.701160
v 0.022166 0.027765 0.311948
v 0.022164 0.027765 0.585529
v -0.005887 0.027765 0.202472
v -0.005891 0.027765 0.695004
v -0.016084 0.027765 0.317287
v -0.016086 0.027765 0.580188
v -0.057297 0.027765 0.212517
v -0.057300 0.027765 0.684959
v -0.050891 0.027765 0.572824
v -0.050889 0.027765 0.324652
v -0.082112 0.027765 0.563498
v -0.082110 0.027765 0.333976
v -0.104490 0.027765 0.226273
v -0.104493 0.027765 0.671201
v -0.109612 0.027765 0.552278
v -0.109611 0.027765 0.345196
v -0.147183 0.027765 0.243564
v -0.147186 0.027765 0.653909
v -0.133257 0.027765 0.539225
v -0.133256 0.027765 0.358248
v -0.152910 0.027765 0.524405
v -0.152909 0.027765 0.373068
v -0.185097 0.027765 0.264214
v -0.185100 0.027765 0.633259
v -0.168432 0.027765 0.507882
v -0.168431 0.027765 0.389591
v -0.179689 0.027765 0.489720
v -0.179688 0.027765 0.407753
v -0.186543 0.027765 0.469983
v -0.186543 0.027765 0.427490
v -0.217950 0.027765 0.288045
v -0.217952 0.027765 0.609428
v -0.188859 0.027765 0.448737
v -0.245459 0.027765 0.314880
v -0.245461 0.027765 0.582591
v -0.267345 0.027765 0.344544
v -0.267347 0.027765 0.552927
v -0.283325 0.027765 0.376859
v -0.283327 0.027765 0.520612
v -0.293120 0.027765 0.411649
v -0.293121 0.027765 0.485823
v -0.296449 0.027765 0.448736
v -0.286032 0.027765 -0.185235
v 0.502961 0.027765 -0.071855
v 0.502962 0.027765 -0.185229
v -0.286033 0.027765 -0.071861
v -0.084730 0.027765 -0.746322
v 0.022858 0.027765 -0.465199
v 0.022860 0.027765 -0.746321
v -0.084732 0.027765 -0.465199
v 0.510041 -0.027765 0.485829
v 0.510042 -0.027765 0.411655
v 0.513369 -0.027765 0.448742
v 0.500247 -0.027765 0.520618
v 0.500248 -0.027765 0.376865
v 0.484266 -0.027765 0.552933
v 0.484267 -0.027765 0.344550
v 0.462379 -0.027765 0.582597
v 0.462381 -0.027765 0.314886
v 0.434873 -0.027765 0.288049
v 0.434870 -0.027765 0.609432
v 0.402021 -0.027765 0.264218
v 0.405779 -0.027765 0.448741
v 0.402018 -0.027765 0.633263
v 0.403464 -0.027765 0.427494
v 0.403464 -0.027765 0.469988
v 0.396610 -0.027765 0.407757
v 0.396609 -0.027765 0.489724
v 0.364108 -0.027765 0.243568
v 0.364105 -0.027765 0.653913
v 0.385354 -0.027765 0.389595
v 0.385353 -0.027765 0.507886
v 0.369831 -0.027765 0.373072
v 0.369830 -0.027765 0.524410
v 0.350178 -0.027765 0.358252
v 0.350177 -0.027765 0.539229
v 0.321414 -0.027765 0.226277
v 0.321411 -0.027765 0.671204
v 0.326533 -0.027765 0.345200
v 0.326531 -0.027765 0.552282
v 0.299032 -0.027765 0.333978
v 0.299030 -0.027765 0.563502
v 0.274222 -0.027765 0.212519
v 0.274219 -0.027765 0.684961
v 0.267811 -0.027765 0.324654
v 0.267809 -0.027765 0.572826
v 0.222811 -0.027765 0.202474
v 0.222807 -0.027765 0.695006
v 0.233007 -0.027765 0.317289
v 0.233005 -0.027765 0.580191
v 0.194756 -0.027765 0.311949
v 0.194754 -0.027765 0.585531
v 0.167464 -0.027765 0.196316
v 0.167460 -0.027765 0.701161
v 0.153195 -0.027765 0.308697
v 0.153193 -0.027765 0.588781
v 0.108462 -0.027765 0.194225
v 0.108458 -0.027765 0.703253
v 0.108461 -0.027765 0.307599
v 0.108459 -0.027765 0.589879
v 0.049460 -0.027765 0.196316
v 0.063727 -0.027765 0.308697
v 0.063725 -0.027765 0.588781
v 0.049456 -0.027765 0.701160
v 0.022166 -0.027765 0.311948
v 0.022164 -0.027765 0.585529
v -0.005887 -0.027765 0.202472
v -0.005891 -0.027765 0.695004
v -0.016084 -0.027765 0.317287
v -0.016086 -0.027765 0.580188
v -0.057297 -0.027765 0.212517
v -0.057300 -0.027765 0.684959
v -0.050891 -0.027765 0.572824
v -0.050889 -0.027765 0.324652
v -0.082112 -0.027765 0.563498
v -0.082110 -0.027765 0.333976
v -0.104490 -0.027765 0.226273
v -0.104493 -0.027765 0.671201
v -0.109612 -0.027765 0.552278
v -0.109611 -0.027765 0.345196
v -0.147183 -0.027765 0.243564
v -0.147186 -0.027765 0.653909
v -0.133257 -0.027765 0.539225
v -0.133256 -0.027765 0.358248
v -0.152910 -0.027765 0.524405
v -0.152909 -0.027765 0.373068
v -0.185097 -0.027765 0.264214
v -0.185100 -0.027765 0.633259
v -0.168432 -0.027765 0.507882
v -0.168431 -0.027765 0.389591
v -0.179689 -0.027765 0.489720
v -0.179688 -0.027765 0.407753
v -0.186543 -0.027765 0.469983
v -0.186543 -0.027765 0.427490
v -0.217949 -0.027765 0.288045
v -0.217952 -0.027765 0.609428
v -0.188859 -0.027765 0.448737
v -0.245459 -0.027765 0.314880
v -0.245461 -0.027765 0.582591
v -0.267345 -0.027765 0.344544
v -0.267346 -0.027765 0.552927
v -0.283325 -0.027765 0.376859
v -0.283327 -0.027765 0.520612
v -0.293120 -0.027765 0.411649
v -0.293121 -0.027765 0.485823
v -0.296449 -0.027765 0.448736
v 0.502961 -0.027765 -0.071855
v -0.286032 -0.027765 -0.185235
v 0.502962 -0.027765 -0.185229
v -0.286033 -0.027765 -0.071861
v 0.022858 -0.027765 -0.465199
v -0.084730 -0.027765 -0.746322
v 0.022860 -0.027765 -0.746321
v -0.084732 -0.027765 -0.465199
v -0.084730 0.027765 -0.746322
v 0.022860 0.027765 -0.746321
v 0.022860 -0.027765 -0.746321
v -0.084730 -0.027765 -0.746322
v 0.022858 0.027765 -0.465199
v 0.022858 -0.027765 -0.465199
v -0.084732 0.027765 -0.465199
v -0.084732 -0.027765 -0.465199
v -0.286032 0.027765 -0.185235
v 0.502962 0.027765 -0.185229
v 0.502962 -0.027765 -0.185229
v -0.286032 -0.027765 -0.185235
v 0.502961 0.027765 -0.071855
v 0.502961 -0.027765 -0.071855
v -0.286033 0.027765 -0.071861
v -0.286033 -0.027765 -0.071861
v -0.293120 0.027765 0.411649
v -0.283325 0.027765 0.376859
v -0.283325 -0.027765 0.376859
v -0.293120 -0.027765 0.411649
v -0.267345 0.027765 0.344544
v -0.267345 -0.027765 0.344544
v -0.245459 0.027765 0.314880
v -0.245459 -0.027765 0.314880
v -0.217950 0.027765 0.288045
v -0.217949 -0.027765 0.288045
v -0.185097 0.027765 0.264214
v -0.185097 -0.027765 0.264214
v -0.147183 0.027765 0.243564
v -0.147183 -0.027765 0.243564
v -0.104490 0.027765 0.226273
v -0.104490 -0.027765 0.226273
v -0.057297 0.027765 0.212517
v -0.057297 -0.027765 0.212517
v -0.005887 0.027765 0.202472
v -0.005887 -0.027765 0.202472
v 0.049460 0.027765 0.196316
v 0.049460 -0.027765 0.196316
v 0.108462 0.027765 0.194225
v 0.108462 -0.027765 0.194225
v 0.167464 0.027765 0.196316
v 0.167464 -0.027765 0.196316
v 0.222811 0.027765 0.202474
v 0.222811 -0.027765 0.202474
v 0.274222 0.027765 0.212519
v 0.274222 -0.027765 0.212519
v 0.321414 0.027765 0.226277
v 0.321414 -0.027765 0.226277
v 0.364108 0.027765 0.243568
v 0.364108 -0.027765 0.243568
v 0.402021 0.027765 0.264218
v 0.402021 -0.027765 0.264218
v 0.434872 0.027765 0.288049
v 0.434873 -0.027765 0.288049
v 0.462381 0.027765 0.314886
v 0.462381 -0.027765 0.314886
v 0.484267 0.027765 0.344550
v 0.484267 -0.027765 0.344550
v 0.500248 0.027765 0.376865
v 0.500248 -0.027765 0.376865
v 0.510042 0.027765 0.411655
v 0.510042 -0.027765 0.411655
v 0.513369 0.027765 0.448742
v 0.513369 -0.027765 0.448742
v 0.510041 0.027765 0.485829
v 0.510041 -0.027765 0.485829
v 0.500247 0.027765 0.520618
v 0.500247 -0.027765 0.520618
v 0.484266 0.027765 0.552933
v 0.484266 -0.027765 0.552933
v 0.462379 0.027765 0.582597
v 0.462379 -0.027765 0.582597
v 0.434870 0.027765 0.609432
v 0.434870 -0.027765 0.609432
v 0.402018 0.027765 0.633263
v 0.402018 -0.027765 0.633263
v 0.364105 0.027765 0.653913
v 0.364105 -0.027765 0.653913
v 0.321411 0.027765 0.671204
v 0.321411 -0.027765 0.671204
v 0.274219 0.027765 0.684961
v 0.274219 -0.027765 0.684961
v 0.222807 0.027765 0.695006
v 0.222807 -0.027765 0.695006
v 0.167460 0.027765 0.701161
v 0.167460 -0.027765 0.701161
v 0.108458 0.027765 0.703253
v 0.108458 -0.027765 0.703253
v 0.049456 0.027765 0.701160
v 0.049456 -0.027765 0.701160
v -0.005891 0.027765 0.695004
v -0.005891 -0.027765 0.695004
v -0.057300 0.027765 0.684959
v -0.057300 -0.027765 0.684959
v -0.104493 0.027765 0.671201
v -0.104493 -0.027765 0.671201
v -0.147186 0.027765 0.653909
v -0.147186 -0.027765 0.653909
v -0.185100 0.027765 0.633259
v -0.185100 -0.027765 0.633259
v -0.217952 0.027765 0.609428
v -0.217952 -0.027765 0.609428
v -0.245461 0.027765 0.582591
v -0.245461 -0.027765 0.582591
v -0.267347 0.027765 0.552927
v -0.267346 -0.027765 0.552927
v -0.283327 0.027765 0.520612
v -0.283327 -0.027765 0.520612
v -0.293121 0.027765 0.485823
v -0.293121 -0.027765 0.485823
v -0.296449 0.027765 0.448736
v -0.296449 -0.027765 0.448736
v 0.403464 0.027765 0.427494
v 0.396610 0.027765 0.407757
v 0.396610 -0.027765 0.407757
v 0.403464 -0.027765 0.427494
v 0.385354 0.027765 0.389595
v 0.385354 -0.027765 0.389595
v 0.369831 0.027765 0.373072
v 0.369831 -0.027765 0.373072
v 0.350178 0.027765 0.358252
v 0.350178 -0.027765 0.358252
v 0.326533 0.027765 0.345200
v 0.326533 -0.027765 0.345200
v 0.299032 0.027765 0.333978
v 0.299032 -0.027765 0.333978
v 0.267811 0.027765 0.324654
v 0.267811 -0.027765 0.324654
v 0.233007 0.027765 0.317289
v 0.233007 -0.027765 0.317289
v 0.194756 0.027765 0.311949
v 0.194756 -0.027765 0.311949
v 0.153195 0.027765 0.308697
v 0.153195 -0.027765 0.308697
v 0.108461 0.027765 0.307599
v 0.108461 -0.027765 0.307599
v 0.063727 0.027765 0.308697
v 0.063727 -0.027765 0.308697
v 0.022166 0.027765 0.311948
v 0.022166 -0.027765 0.311948
v -0.016084 0.027765 0.317287
v -0.016084 -0.027765 0.317287
v -0.050889 0.027765 0.324652
v -0.050889 -0.027765 0.324652
v -0.082110 0.027765 0.333976
v -0.082110 -0.027765 0.333976
v -0.109611 0.027765 0.345196
v -0.109611 -0.027765 0.345196
v -0.133256 0.027765 0.358248
v -0.133256 -0.027765 0.358248
v -0.152909 0.027765 0.373068
v -0.152909 -0.027765 0.373068
v -0.168431 0.027765 0.389591
v -0.168431 -0.027765 0.389591
v -0.179688 0.027765 0.407753
v -0.179688 -0.027765 0.407753
v -0.186543 0.027765 0.427490
v -0.186543 -0.027765 0.427490
v -0.188859 0.027765 0.448737
v -0.188859 -0.027765 0.448737
v -0.186543 0.027765 0.469983
v -0.186543 -0.027765 0.469983
v -0.179689 0.027765 0.489720
v -0.179689 -0.027765 0.489720
v -0.168432 0.027765 0.507882
v -0.168432 -0.027765 0.507882
v -0.152910 0.027765 0.524405
v -0.152910 -0.027765 0.524405
v -0.133257 0.027765 0.539225
v -0.133257 -0.027765 0.539225
v -0.109612 0.027765 0.552278
v -0.109612 -0.027765 0.552278
v -0.082112 0.027765 0.563498
v -0.082112 -0.027765 0.563498
v -0.050891 0.027765 0.572824
v -0.050891 -0.027765 0.572824
v -0.016086 0.027765 0.580188
v -0.016086 -0.027765 0.580188
v 0.022164 0.027765 0.585529
v 0.022164 -0.027765 0.585529
v 0.063725 0.027765 0.588781
v 0.063725 -0.027765 0.588781
v 0.108459 0.027765 0.589879
v 0.108459 -0.027765 0.589879
v 0.153193 0.027765 0.588781
v 0.153193 -0.027765 0.588781
v 0.194754 0.027765 0.585531
v 0.194754 -0.027765 0.585531
v 0.233005 0.027765 0.580191
v 0.233005 -0.027765 0.580191
v 0.267809 0.027765 0.572826
v 0.267809 -0.027765 0.572826
v 0.299030 0.027765 0.563502
v 0.299030 -0.027765 0.563502
v 0.326531 0.027765 0.552282
v 0.326531 -0.027765 0.552282
v 0.350177 0.027765 0.539229
v 0.350177 -0.027765 0.539229
v 0.369830 0.027765 0.524410
v 0.369830 -0.027765 0.524410
v 0.385353 0.027765 0.507886
v 0.385353 -0.027765 0.507886
v 0.396609 0.027765 0.489724
v 0.396609 -0.027765 0.489724
v 0.403464 0.027765 0.469988
v 0.403464 -0.027765 0.469988
v 0.405779 0.027765 0.448741
v 0.405779 -0.027765 0.448741
vn 0.0000 1.0000 0.0000
vn 0.0000 -1.0000 0.0000
vn -0.7071 -0.0000 -0.7071
vn 0.7071 0.0000 -0.7071
vn 0.7071 0.0000 0.7071
vn -0.7071 -0.0000 0.7071
vn -0.9835 -0.0000 -0.1810
vn -0.9335 -0.0000 -0.3587
vn -0.8539 0.0000 -0.5205
vn -0.7540 -0.0000 -0.6569
vn -0.6444 -0.0000 -0.7647
vn -0.5338 -0.0000 -0.8456
vn -0.4275 -0.0000 -0.9040
vn -0.3280 -0.0000 -0.9447
vn -0.2360 -0.0000 -0.9717
vn -0.1513 -0.0000 -0.9885
vn -0.0730 -0.0000 -0.9973
vn 0.0000 0.0000 -1.0000
vn 0.0730 0.0000 -0.9973
vn 0.1513 0.0000 -0.9885
vn 0.2361 0.0000 -0.9717
vn 0.3280 0.0000 -0.9447
vn 0.4276 0.0000 -0.9040
vn 0.5339 0.0000 -0.8456
vn 0.6444 0.0000 -0.7646
vn 0.7540 0.0000 -0.6569
vn 0.8539 0.0000 -0.5205
vn 0.9335 0.0000 -0.3587
vn 0.9835 0.0000 -0.1809
vn 1.0000 0.0000 0.0000
vn 0.9835 0.0000 0.1810
vn 0.9335 0.0000 0.3587
vn 0.8538 0.0000 0.5205
vn 0.7540 0.0000 0.6569
vn 0.6444 0.0000 0.7647
vn 0.5339 0.0000 0.8456
vn 0.4275 0.0000 0.9040
vn 0.3280 0.0000 0.9447
vn 0.2360 0.0000 0.9717
vn 0.1513 0.0000 0.9885
vn 0.0730 0.0000 0.9973
vn -0.0000 -0.0000 1.0000
vn -0.0730 -0.0000 0.9973
vn -0.1513 -0.0000 0.9885
vn -0.2361 -0.0000 0.9717
vn -0.3281 -0.0000 0.9447
vn -0.4276 -0.0000 0.9040
vn -0.5339 0.0000 0.8456
vn -0.6444 0.0000 0.7646
vn -0.7540 -0.0000 0.6569
vn -0.8539 -0.0000 0.5205
vn -0.9335 -0.0000 0.3587
vn -0.9835 -0.0000 0.1809
vn -1.0000 -0.0000 -0.0000
vn -0.9756 -0.0000 0.2196
vn -0.9028 -0.0000 0.4300
vn -0.7934 -0.0000 0.6088
vn -0.6679 0.0000 0.7443
vn -0.5440 0.0000 0.8391
vn -0.4313 0.0000 0.9022
vn -0.3324 -0.0000 0.9431
vn -0.2468 -0.0000 0.9691
vn -0.1728 -0.0000 0.9850
vn -0.1082 -0.0000 0.9941
vn -0.0513 -0.0000 0.9987
vn 0.0513 0.0000 0.9987
vn 0.1082 0.0000 0.9941
vn 0.1727 0.0000 0.9850
vn 0.2468 0.0000 0.9691
vn 0.3324 0.0000 0.9432
vn 0.4313 0.0000 0.9022
vn 0.5440 0.0000 0.8391
vn 0.6679 0.0000 0.7443
vn 0.7933 0.0000 0.6088
vn 0.9028 0.0000 0.4301
vn 0.9756 0.0000 0.2196
vn 0.9756 0.0000 -0.2196
vn 0.9028 0.0000 -0.4300
vn 0.7933 0.0000 -0.6088
vn 0.6679 0.0000 -0.7443
vn 0.5441 0.0000 -0.8390
vn 0.4313 0.0000 -0.9022
vn 0.3324 0.0000 -0.9431
vn 0.2468 0.0000 -0.9691
vn 0.1728 0.0000 -0.9850
vn 0.1082 0.0000 -0.9941
vn 0.0513 0.0000 -0.9987
vn -0.0513 -0.0000 -0.9987
vn -0.1082 -0.0000 -0.9941
vn -0.1727 -0.0000 -0.9850
vn -0.2468 -0.0000 -0.9691
vn -0.3324 -0.0000 -0.9432
vn -0.4313 0.0000 -0.9022
vn -0.5440 0.0000 -0.8391
vn -0.6679 -0.0000 -0.7443
vn -0.7934 -0.0000 -0.6088
vn -0.9028 0.0000 -0.4301
vn -0.9756 0.0000 -0.2196
usemtl None.001
s off
f 1//1 2//1 3//1
f 1//1 4//1 2//1
f 5//1 4//1 1//1
f 5//1 6//1 4//1
f 7//1 6//1 5//1
f 7//1 8//1 6//1
f 9//1 8//1 7//1
f 10//1 8//1 9//1
f 10//1 11//1 8//1
f 12//1 11//1 10//1
f 12//1 13//1 11//1
f 13//1 14//1 11//1
f 12//1 15//1 13//1
f 16//1 14//1 13//1
f 12//1 17//1 15//1
f 18//1 14//1 16//1
f 19//1 17//1 12//1
f 18//1 20//1 14//1
f 19//1 21//1 17//1
f 22//1 20//1 18//1
f 19//1 23//1 21//1
f 24//1 20//1 22//1
f 19//1 25//1 23//1
f 26//1 20//1 24//1
f 27//1 25//1 19//1
f 26//1 28//1 20//1
f 27//1 29//1 25//1
f 30//1 28//1 26//1
f 27//1 31//1 29//1
f 32//1 28//1 30//1
f 33//1 31//1 27//1
f 32//1 34//1 28//1
f 33//1 35//1 31//1
f 36//1 34//1 32//1
f 37//1 35//1 33//1
f 36//1 38//1 34//1
f 37//1 39//1 35//1
f 40//1 38//1 36//1
f 37//1 41//1 39//1
f 42//1 38//1 40//1
f 43//1 41//1 37//1
f 42//1 44//1 38//1
f 43//1 45//1 41//1
f 46//1 44//1 42//1
f 47//1 45//1 43//1
f 46//1 48//1 44//1
f 47//1 49//1 45//1
f 50//1 48//1 46//1
f 51//1 49//1 47//1
f 51//1 52//1 49//1
f 53//1 48//1 50//1
f 53//1 54//1 48//1
f 51//1 55//1 52//1
f 56//1 54//1 53//1
f 57//1 55//1 51//1
f 56//1 58//1 54//1
f 57//1 59//1 55//1
f 60//1 58//1 56//1
f 61//1 59//1 57//1
f 60//1 62//1 58//1
f 63//1 62//1 60//1
f 61//1 64//1 59//1
f 65//1 62//1 63//1
f 61//1 66//1 64//1
f 67//1 66//1 61//1
f 65//1 68//1 62//1
f 69//1 68//1 65//1
f 67//1 70//1 66//1
f 71//1 70//1 67//1
f 69//1 72//1 68//1
f 73//1 72//1 69//1
f 71//1 74//1 70//1
f 75//1 72//1 73//1
f 71//1 76//1 74//1
f 77//1 76//1 71//1
f 75//1 78//1 72//1
f 79//1 78//1 75//1
f 77//1 80//1 76//1
f 81//1 78//1 79//1
f 77//1 82//1 80//1
f 83//1 78//1 81//1
f 77//1 84//1 82//1
f 85//1 84//1 77//1
f 83//1 86//1 78//1
f 87//1 86//1 83//1
f 85//1 87//1 84//1
f 85//1 86//1 87//1
f 88//1 86//1 85//1
f 88//1 89//1 86//1
f 90//1 89//1 88//1
f 90//1 91//1 89//1
f 92//1 91//1 90//1
f 92//1 93//1 91//1
f 94//1 93//1 92//1
f 94//1 95//1 93//1
f 96//1 95//1 94//1
f 97//1 98//1 99//1
f 97//1 100//1 98//1
f 101//1 102//1 103//1
f 101//1 104//1 102//1
f 105//2 106//2 107//2
f 108//2 106//2 105//2
f 108//2 109//2 106//2
f 110//2 109//2 108//2
f 110//2 111//2 109//2
f 112//2 111//2 110//2
f 112//2 113//2 111//2
f 112//2 114//2 113//2
f 115//2 114//2 112//2
f 115//2 116//2 114//2
f 117//2 116//2 115//2
f 118//2 117//2 115//2
f 119//2 116//2 117//2
f 118//2 120//2 117//2
f 121//2 116//2 119//2
f 118//2 122//2 120//2
f 121//2 123//2 116//2
f 124//2 122//2 118//2
f 125//2 123//2 121//2
f 124//2 126//2 122//2
f 127//2 123//2 125//2
f 124//2 128//2 126//2
f 129//2 123//2 127//2
f 124//2 130//2 128//2
f 129//2 131//2 123//2
f 132//2 130//2 124//2
f 133//2 131//2 129//2
f 132//2 134//2 130//2
f 135//2 131//2 133//2
f 132//2 136//2 134//2
f 135//2 137//2 131//2
f 138//2 136//2 132//2
f 139//2 137//2 135//2
f 138//2 140//2 136//2
f 139//2 141//2 137//2
f 142//2 140//2 138//2
f 143//2 141//2 139//2
f 142//2 144//2 140//2
f 145//2 141//2 143//2
f 142//2 146//2 144//2
f 145//2 147//2 141//2
f 148//2 146//2 142//2
f 149//2 147//2 145//2
f 148//2 150//2 146//2
f 149//2 151//2 147//2
f 152//2 150//2 148//2
f 153//2 151//2 149//2
f 152//2 154//2 150//2
f 153//2 155//2 151//2
f 156//2 155//2 153//2
f 152//2 157//2 154//2
f 158//2 157//2 152//2
f 159//2 155//2 156//2
f 158//2 160//2 157//2
f 159//2 161//2 155//2
f 162//2 160//2 158//2
f 163//2 161//2 159//2
f 162//2 164//2 160//2
f 163//2 165//2 161//2
f 166//2 164//2 162//2
f 166//2 167//2 164//2
f 168//2 165//2 163//2
f 166//2 169//2 167//2
f 170//2 165//2 168//2
f 170//2 171//2 165//2
f 172//2 169//2 166//2
f 172//2 173//2 169//2
f 174//2 171//2 170//2
f 174//2 175//2 171//2
f 176//2 173//2 172//2
f 176//2 177//2 173//2
f 178//2 175//2 174//2
f 176//2 179//2 177//2
f 180//2 175//2 178//2
f 180//2 181//2 175//2
f 182//2 179//2 176//2
f 182//2 183//2 179//2
f 184//2 181//2 180//2
f 182//2 185//2 183//2
f 186//2 181//2 184//2
f 182//2 187//2 185//2
f 188//2 181//2 186//2
f 188//2 189//2 181//2
f 190//2 187//2 182//2
f 190//2 191//2 187//2
f 191//2 189//2 188//2
f 190//2 189//2 191//2
f 190//2 192//2 189//2
f 193//2 192//2 190//2
f 193//2 194//2 192//2
f 195//2 194//2 193//2
f 195//2 196//2 194//2
f 197//2 196//2 195//2
f 197//2 198//2 196//2
f 199//2 198//2 197//2
f 199//2 200//2 198//2
f 201//2 202//2 203//2
f 204//2 202//2 201//2
f 205//2 206//2 207//2
f 208//2 206//2 205//2
s 1
f 209//3 210//4 211//4 212//3
f 210//4 213//5 214//5 211//4
f 213//5 215//6 216//6 214//5
f 215//6 209//3 212//3 216//6
f 217//3 218//4 219//4 220//3
f 218//4 221//5 222//5 219//4
f 221//5 223//6 224//6 222//5
f 223//6 217//3 220//3 224//6
f 225//7 226//8 227//8 228//7
f 226//8 229//9 230//9 227//8
f 229//9 231//10 232//10 230//9
f 231//10 233//11 234//11 232//10
f 233//11 235//12 236//12 234//11
f 235//12 237//13 238//13 236//12
f 237//13 239//14 240//14 238//13
f 239//14 241//15 242//15 240//14
f 241//15 243//16 244//16 242//15
f 243//16 245//17 246//17 244//16
f 245//17 247//18 248//18 246//17
f 247//18 249//19 250//19 248//18
f 249//19 251//20 252//20 250//19
f 251//20 253//21 254//21 252//20
f 253//21 255//22 256//22 254//21
f 255//22 257//23 258//23 256//22
f 257//23 259//24 260//24 258//23
f 259//24 261//25 262//25 260//24
f 261//25 263//26 264//26 262//25
f 263//26 265//27 266//27 264//26
f 265//27 267//28 268//28 266//27
f 267//28 269//29 270//29 268//28
f 269//29 271//30 272//30 270//29
f 271//30 273//31 274//31 272//30
f 273//31 275//32 276//32 274//31
f 275//32 277//33 278//33 276//32
f 277//33 279//34 280//34 278//33
f 279//34 281//35 282//35 280//34
f 281//35 283//36 284//36 282//35
f 283//36 285//37 286//37 284//36
f 285//37 287//38 288//38 286//37
f 287//38 289//39 290//39 288//38
f 289//39 291//40 292//40 290//39
f 291//40 293//41 294//41 292//40
f 293//41 295//42 296//42 294//41
f 295//42 297//43 298//43 296//42
f 297//43 299//44 300//44 298//43
f 299//44 301//45 302//45 300//44
f 301//45 303//46 304//46 302//45
f 303//46 305//47 306//47 304//46
f 305//47 307//48 308//48 306//47
f 307//48 309//49 310//49 308//48
f 309//49 311//50 312//50 310//49
f 311//50 313//51 314//51 312//50
f 313//51 315//52 316//52 314//51
f 315//52 317//53 318//53 316//52
f 317//53 319//54 320//54 318//53
f 319//54 225//7 228//7 320//54
f 321//55 322//56 323//56 324//55
f 322//56 325//57 326//57 323//56
f 325//57 327//58 328//58 326//57
f 327//58 329//59 330//59 328//58
f 329//59 331//60 332//60 330//59
f 331//60 333//61 334//61 332//60
f 333//61 335//62 336//62 334//61
f 335//62 337//63 338//63 336//62
f 337//63 339//64 340//64 338//63
f 339//64 341//65 342//65 340//64
f 341//65 343//42 344//42 342//65
f 343//42 345//66 346//66 344//42
f 345//66 347//67 348//67 346//66
f 347//67 349//68 350//68 348//67
f 349//68 351//69 352//69 350//68
f 351//69 353//70 354//70 352//69
f 353//70 355//71 356//71 354//70
f 355//71 357//72 358//72 356//71
f 357//72 359//73 360//73 358//72
f 359//73 361//74 362//74 360//73
f 361//74 363//75 364//75 362//74
f 363//75 365//76 366//76 364//75
f 365//76 367//30 368//30 366//76
f 367//30 369//77 370//77 368//30
f 369//77 371//78 372//78 370//77
f 371//78 373//79 374//79 372//78
f 373//79 375//80 376//80 374//79
f 375//80 377//81 378//81 376//80
f 377//81 379//82 380//82 378//81
f 379//82 381//83 382//83 380//82
f 381//83 383//84 384//84 382//83
f 383//84 385//85 386//85 384//84
f 385//85 387//86 388//86 386//85
f 387//86 389//87 390//87 388//86
f 389//87 391//18 392//18 390//87
f 391//18 393//88 394//88 392//18
f 393//88 395//89 396//89 394//88
f 395//89 397//90 398//90 396//89
f 397//90 399//91 400//91 398//90
f 399//91 401//92 402//92 400//91
f 401//92 403//93 404//93 402//92
f 403//93 405//94 406//94 404//93
f 405//94 407//95 408//95 406//94
f 407//95 409//96 410//96 408//95
f 409//96 411//97 412//97 410//96
f 411//97 413//98 414//98 412//97
f 413//98 415//54 416//54 414//98
f 415//54 321//55 324//55 416//54
