# Blender v2.79 (sub 0) OBJ File: ''
# www.blender.org
mtllib wrongway.mtl
o Curve_Curve.019
v 7.616730 0.264768 4.342310
v 7.514551 0.264768 4.838932
v 7.349934 0.264768 5.310318
v 7.127531 0.264768 5.751822
v 6.851991 0.264768 6.158792
v 6.527962 0.264768 6.526582
v 6.160094 0.264768 6.850543
v 5.753037 0.264768 7.126026
v 5.311441 0.264768 7.348382
v 4.839955 0.264768 7.512964
v 4.343229 0.264768 7.615121
v 3.825912 0.264768 7.650207
v 3.308594 0.264768 7.615121
v 2.811868 0.264768 7.512964
v 2.340382 0.264768 7.348383
v 1.898786 0.264768 7.126026
v 1.491729 0.264768 6.850543
v 1.123862 0.264768 6.526583
v 0.799833 0.264768 6.158793
v 0.524292 0.264768 5.751822
v 0.301888 0.264768 5.310319
v 0.137272 0.264768 4.838933
v 0.035093 0.264768 4.342311
v 0.000000 0.264768 3.825104
v 0.035093 0.264768 3.307895
v 0.137272 0.264768 2.811274
v 0.301888 0.264768 2.339888
v 0.524291 0.264768 1.898385
v 0.799832 0.264768 1.491414
v 1.123861 0.264768 1.123624
v 1.491729 0.264768 0.799664
v 1.898786 0.264768 0.524181
v 2.340382 0.264768 0.301825
v 2.811868 0.264768 0.137243
v 3.308594 0.264768 0.035086
v 3.825912 0.264768 0.000000
v 4.343230 0.264768 0.035086
v 4.839956 0.264768 0.137244
v 5.311442 0.264768 0.301825
v 5.753038 0.264768 0.524181
v 6.160095 0.264768 0.799664
v 6.527963 0.264768 1.123624
v 6.851991 0.264768 1.491414
v 7.127532 0.264768 1.898385
v 7.349935 0.264768 2.339888
v 7.514551 0.264768 2.811274
v 7.616730 0.264768 3.307896
v 7.651823 0.264768 3.825104
v 1.912956 0.264768 3.442593
v 1.912956 0.264768 4.207614
v 5.738868 0.264768 4.207614
v 5.738868 0.264768 3.442593
v 7.616730 -0.264768 4.342310
v 7.514551 -0.264768 4.838932
v 7.349934 -0.264768 5.310318
v 7.127531 -0.264768 5.751822
v 6.851991 -0.264768 6.158792
v 6.527962 -0.264768 6.526582
v 6.160094 -0.264768 6.850543
v 5.753037 -0.264768 7.126026
v 5.311441 -0.264768 7.348382
v 4.839955 -0.264768 7.512964
v 4.343229 -0.264768 7.615121
v 3.825912 -0.264768 7.650207
v 3.308594 -0.264768 7.615121
v 2.811868 -0.264768 7.512964
v 2.340382 -0.264768 7.348383
v 1.898786 -0.264768 7.126026
v 1.491729 -0.264768 6.850543
v 1.123862 -0.264768 6.526583
v 0.799833 -0.264768 6.158793
v 0.524292 -0.264768 5.751822
v 0.301888 -0.264768 5.310319
v 0.137272 -0.264768 4.838933
v 0.035093 -0.264768 4.342311
v 0.000000 -0.264768 3.825104
v 0.035093 -0.264768 3.307895
v 0.137272 -0.264768 2.811274
v 0.301888 -0.264768 2.339888
v 0.524291 -0.264768 1.898385
v 0.799832 -0.264768 1.491414
v 1.123861 -0.264768 1.123624
v 1.491729 -0.264768 0.799664
v 1.898786 -0.264768 0.524181
v 2.340382 -0.264768 0.301825
v 2.811868 -0.264768 0.137243
v 3.308594 -0.264768 0.035086
v 3.825912 -0.264768 0.000000
v 4.343230 -0.264768 0.035086
v 4.839956 -0.264768 0.137244
v 5.311442 -0.264768 0.301825
v 5.753038 -0.264768 0.524181
v 6.160095 -0.264768 0.799664
v 6.527963 -0.264768 1.123624
v 6.851991 -0.264768 1.491414
v 7.127532 -0.264768 1.898385
v 7.349935 -0.264768 2.339888
v 7.514551 -0.264768 2.811274
v 7.616730 -0.264768 3.307896
v 7.651823 -0.264768 3.825104
v 1.912956 -0.264768 3.442593
v 1.912956 -0.264768 4.207614
v 5.738868 -0.264768 4.207614
v 5.738868 -0.264768 3.442593
v 7.616730 -0.264768 4.342310
v 7.616730 0.264768 4.342310
v 7.514551 -0.264768 4.838932
v 7.514551 0.264768 4.838932
v 7.349934 -0.264768 5.310318
v 7.349934 0.264768 5.310318
v 7.127531 -0.264768 5.751822
v 7.127531 0.264768 5.751822
v 6.851991 -0.264768 6.158792
v 6.851991 0.264768 6.158792
v 6.527962 -0.264768 6.526582
v 6.527962 0.264768 6.526582
v 6.160094 -0.264768 6.850543
v 6.160094 0.264768 6.850543
v 5.753037 -0.264768 7.126026
v 5.753037 0.264768 7.126026
v 5.311441 -0.264768 7.348382
v 5.311441 0.264768 7.348382
v 4.839955 -0.264768 7.512964
v 4.839955 0.264768 7.512964
v 4.343229 -0.264768 7.615121
v 4.343229 0.264768 7.615121
v 3.825912 -0.264768 7.650207
v 3.825912 0.264768 7.650207
v 3.308594 -0.264768 7.615121
v 3.308594 0.264768 7.615121
v 2.811868 -0.264768 7.512964
v 2.811868 0.264768 7.512964
v 2.340382 -0.264768 7.348383
v 2.340382 0.264768 7.348383
v 1.898786 -0.264768 7.126026
v 1.898786 0.264768 7.126026
v 1.491729 -0.264768 6.850543
v 1.491729 0.264768 6.850543
v 1.123862 -0.264768 6.526583
v 1.123862 0.264768 6.526583
v 0.799833 -0.264768 6.158793
v 0.799833 0.264768 6.158793
v 0.524292 -0.264768 5.751822
v 0.524292 0.264768 5.751822
v 0.301888 -0.264768 5.310319
v 0.301888 0.264768 5.310319
v 0.137272 -0.264768 4.838933
v 0.137272 0.264768 4.838933
v 0.035093 -0.264768 4.342311
v 0.035093 0.264768 4.342311
v 0.000000 -0.264768 3.825104
v 0.000000 0.264768 3.825104
v 0.035093 -0.264768 3.307895
v 0.035093 0.264768 3.307895
v 0.137272 -0.264768 2.811274
v 0.137272 0.264768 2.811274
v 0.301888 -0.264768 2.339888
v 0.301888 0.264768 2.339888
v 0.524291 -0.264768 1.898385
v 0.524291 0.264768 1.898385
v 0.799832 -0.264768 1.491414
v 0.799832 0.264768 1.491414
v 1.123861 -0.264768 1.123624
v 1.123861 0.264768 1.123624
v 1.491729 -0.264768 0.799664
v 1.491729 0.264768 0.799664
v 1.898786 -0.264768 0.524181
v 1.898786 0.264768 0.524181
v 2.340382 -0.264768 0.301825
v 2.340382 0.264768 0.301825
v 2.811868 -0.264768 0.137243
v 2.811868 0.264768 0.137243
v 3.308594 -0.264768 0.035086
v 3.308594 0.264768 0.035086
v 3.825912 -0.264768 0.000000
v 3.825912 0.264768 0.000000
v 4.343230 -0.264768 0.035086
v 4.343230 0.264768 0.035086
v 4.839956 -0.264768 0.137244
v 4.839956 0.264768 0.137244
v 5.311442 -0.264768 0.301825
v 5.311442 0.264768 0.301825
v 5.753038 -0.264768 0.524181
v 5.753038 0.264768 0.524181
v 6.160095 -0.264768 0.799664
v 6.160095 0.264768 0.799664
v 6.527963 -0.264768 1.123624
v 6.527963 0.264768 1.123624
v 6.851991 -0.264768 1.491414
v 6.851991 0.264768 1.491414
v 7.127532 -0.264768 1.898385
v 7.127532 0.264768 1.898385
v 7.349935 -0.264768 2.339888
v 7.349935 0.264768 2.339888
v 7.514551 -0.264768 2.811274
v 7.514551 0.264768 2.811274
v 7.616730 -0.264768 3.307896
v 7.616730 0.264768 3.307896
v 7.651823 -0.264768 3.825104
v 7.651823 0.264768 3.825104
v 1.912956 -0.264768 3.442593
v 1.912956 0.264768 3.442593
v 1.912956 -0.264768 4.207614
v 1.912956 0.264768 4.207614
v 5.738868 -0.264768 4.207614
v 5.738868 0.264768 4.207614
v 5.738868 -0.264768 3.442593
v 5.738868 0.264768 3.442593
vn 0.0000 1.0000 0.0000
vn 0.0000 -1.0000 0.0000
vn 0.9908 0.0000 0.1349
vn 0.9639 0.0000 0.2662
vn 0.9205 0.0000 0.3906
vn 0.8623 0.0000 0.5063
vn 0.7908 0.0000 0.6121
vn 0.7070 0.0000 0.7072
vn 0.6119 0.0000 0.7909
vn 0.5061 0.0000 0.8624
vn 0.3905 0.0000 0.9206
vn 0.2661 0.0000 0.9639
vn 0.1349 0.0000 0.9908
vn 0.0000 0.0000 1.0000
vn -0.1349 0.0000 0.9908
vn -0.2661 0.0000 0.9639
vn -0.3905 0.0000 0.9206
vn -0.5061 0.0000 0.8624
vn -0.6119 0.0000 0.7909
vn -0.7070 0.0000 0.7072
vn -0.7908 0.0000 0.6121
vn -0.8623 0.0000 0.5063
vn -0.9205 0.0000 0.3906
vn -0.9639 0.0000 0.2662
vn -0.9908 0.0000 0.1349
vn -1.0000 0.0000 0.0000
vn -0.9908 0.0000 -0.1349
vn -0.9639 0.0000 -0.2662
vn -0.9205 0.0000 -0.3906
vn -0.8623 0.0000 -0.5063
vn -0.7908 0.0000 -0.6121
vn -0.7070 0.0000 -0.7072
vn -0.6119 0.0000 -0.7909
vn -0.5061 0.0000 -0.8624
vn -0.3905 0.0000 -0.9206
vn -0.2661 0.0000 -0.9639
vn -0.1349 0.0000 -0.9908
vn 0.0000 0.0000 -1.0000
vn 0.1349 0.0000 -0.9908
vn 0.2661 0.0000 -0.9639
vn 0.3905 0.0000 -0.9206
vn 0.5061 0.0000 -0.8624
vn 0.6119 0.0000 -0.7909
vn 0.7070 0.0000 -0.7072
vn 0.7908 0.0000 -0.6121
vn 0.8623 0.0000 -0.5063
vn 0.9205 0.0000 -0.3906
vn 0.9639 0.0000 -0.2662
vn 0.9908 0.0000 -0.1349
vn 1.0000 0.0000 0.0000
vn 0.7071 0.0000 0.7071
vn 0.7071 0.0000 -0.7071
vn -0.7071 0.0000 -0.7071
vn -0.7071 0.0000 0.7071
usemtl SVGMat.025
s off
f 35//1 37//1 36//1
f 34//1 37//1 35//1
f 34//1 38//1 37//1
f 33//1 38//1 34//1
f 33//1 39//1 38//1
f 32//1 39//1 33//1
f 32//1 40//1 39//1
f 31//1 40//1 32//1
f 31//1 41//1 40//1
f 30//1 41//1 31//1
f 30//1 42//1 41//1
f 29//1 42//1 30//1
f 29//1 43//1 42//1
f 28//1 43//1 29//1
f 28//1 44//1 43//1
f 27//1 44//1 28//1
f 27//1 45//1 44//1
f 26//1 45//1 27//1
f 26//1 46//1 45//1
f 25//1 46//1 26//1
f 25//1 47//1 46//1
f 24//1 49//1 25//1
f 49//1 47//1 25//1
f 49//1 52//1 47//1
f 52//1 48//1 47//1
f 24//1 50//1 49//1
f 51//1 48//1 52//1
f 23//1 50//1 24//1
f 51//1 1//1 48//1
f 23//1 51//1 50//1
f 23//1 1//1 51//1
f 23//1 2//1 1//1
f 22//1 2//1 23//1
f 22//1 3//1 2//1
f 21//1 3//1 22//1
f 21//1 4//1 3//1
f 20//1 4//1 21//1
f 20//1 5//1 4//1
f 19//1 5//1 20//1
f 19//1 6//1 5//1
f 18//1 6//1 19//1
f 18//1 7//1 6//1
f 17//1 7//1 18//1
f 17//1 8//1 7//1
f 16//1 8//1 17//1
f 16//1 9//1 8//1
f 15//1 9//1 16//1
f 15//1 10//1 9//1
f 14//1 10//1 15//1
f 13//1 10//1 14//1
f 13//1 11//1 10//1
f 12//1 11//1 13//1
f 89//2 87//2 88//2
f 89//2 86//2 87//2
f 90//2 86//2 89//2
f 90//2 85//2 86//2
f 91//2 85//2 90//2
f 91//2 84//2 85//2
f 92//2 84//2 91//2
f 92//2 83//2 84//2
f 93//2 83//2 92//2
f 93//2 82//2 83//2
f 94//2 82//2 93//2
f 94//2 81//2 82//2
f 95//2 81//2 94//2
f 95//2 80//2 81//2
f 96//2 80//2 95//2
f 96//2 79//2 80//2
f 97//2 79//2 96//2
f 97//2 78//2 79//2
f 98//2 78//2 97//2
f 98//2 77//2 78//2
f 99//2 77//2 98//2
f 101//2 76//2 77//2
f 99//2 101//2 77//2
f 104//2 101//2 99//2
f 100//2 104//2 99//2
f 102//2 76//2 101//2
f 100//2 103//2 104//2
f 102//2 75//2 76//2
f 53//2 103//2 100//2
f 103//2 75//2 102//2
f 53//2 75//2 103//2
f 54//2 75//2 53//2
f 54//2 74//2 75//2
f 55//2 74//2 54//2
f 55//2 73//2 74//2
f 56//2 73//2 55//2
f 56//2 72//2 73//2
f 57//2 72//2 56//2
f 57//2 71//2 72//2
f 58//2 71//2 57//2
f 58//2 70//2 71//2
f 59//2 70//2 58//2
f 59//2 69//2 70//2
f 60//2 69//2 59//2
f 60//2 68//2 69//2
f 61//2 68//2 60//2
f 61//2 67//2 68//2
f 62//2 67//2 61//2
f 62//2 66//2 67//2
f 62//2 65//2 66//2
f 63//2 65//2 62//2
f 63//2 64//2 65//2
s 1
f 106//3 108//4 107//4 105//3
f 108//4 110//5 109//5 107//4
f 110//5 112//6 111//6 109//5
f 112//6 114//7 113//7 111//6
f 114//7 116//8 115//8 113//7
f 116//8 118//9 117//9 115//8
f 118//9 120//10 119//10 117//9
f 120//10 122//11 121//11 119//10
f 122//11 124//12 123//12 121//11
f 124//12 126//13 125//13 123//12
f 126//13 128//14 127//14 125//13
f 128//14 130//15 129//15 127//14
f 130//15 132//16 131//16 129//15
f 132//16 134//17 133//17 131//16
f 134//17 136//18 135//18 133//17
f 136//18 138//19 137//19 135//18
f 138//19 140//20 139//20 137//19
f 140//20 142//21 141//21 139//20
f 142//21 144//22 143//22 141//21
f 144//22 146//23 145//23 143//22
f 146//23 148//24 147//24 145//23
f 148//24 150//25 149//25 147//24
f 150//25 152//26 151//26 149//25
f 152//26 154//27 153//27 151//26
f 154//27 156//28 155//28 153//27
f 156//28 158//29 157//29 155//28
f 158//29 160//30 159//30 157//29
f 160//30 162//31 161//31 159//30
f 162//31 164//32 163//32 161//31
f 164//32 166//33 165//33 163//32
f 166//33 168//34 167//34 165//33
f 168//34 170//35 169//35 167//34
f 170//35 172//36 171//36 169//35
f 172//36 174//37 173//37 171//36
f 174//37 176//38 175//38 173//37
f 176//38 178//39 177//39 175//38
f 178//39 180//40 179//40 177//39
f 180//40 182//41 181//41 179//40
f 182//41 184//42 183//42 181//41
f 184//42 186//43 185//43 183//42
f 186//43 188//44 187//44 185//43
f 188//44 190//45 189//45 187//44
f 190//45 192//46 191//46 189//45
f 192//46 194//47 193//47 191//46
f 194//47 196//48 195//48 193//47
f 196//48 198//49 197//49 195//48
f 198//49 200//50 199//50 197//49
f 200//50 106//3 105//3 199//50
f 202//51 204//52 203//52 201//51
f 204//52 206//53 205//53 203//52
f 206//53 208//54 207//54 205//53
f 208//54 202//51 201//51 207//54
